<?xml version="1.0" standalone="no"?>
<!DOCTYPE svg PUBLIC "-//W3C//DTD SVG 20010904//EN" "http://www.w3.org/TR/2001/REC-SVG-20010904/DTD/svg10.dtd">
<!-- Created using Krita: https://krita.org -->
<svg xmlns="http://www.w3.org/2000/svg" 
    xmlns:xlink="http://www.w3.org/1999/xlink"
    xmlns:krita="http://krita.org/namespaces/svg/krita"
    xmlns:sodipodi="http://sodipodi.sourceforge.net/DTD/sodipodi-0.dtd"
    width="1101.12pt"
    height="528pt"
    viewBox="0 0 1101.12 528">
<defs>
  <linearGradient id="gradient0" gradientUnits="objectBoundingBox" x1="0.540000019548625" y1="-0.00178573245093927" x2="0.454999980270363" y2="0.443928569398721" spreadMethod="pad">
   <stop stop-color="#fd8146" offset="0" stop-opacity="1"/>
   <stop stop-color="#fc9b4b" offset="1" stop-opacity="1"/>
  </linearGradient>
  <linearGradient id="gradient1" gradientUnits="objectBoundingBox" x1="0" y1="0" x2="1" y2="1" spreadMethod="pad">
   <stop stop-color="#fd8146" offset="0" stop-opacity="1"/>
   <stop stop-color="#ea7147" offset="1" stop-opacity="1"/>
  </linearGradient>
  <linearGradient id="gradient2" gradientUnits="objectBoundingBox" x1="-0.0467532456590578" y1="0.479999988766326" x2="0.802597407217312" y2="0.500000011701744" spreadMethod="pad">
   <stop stop-color="#fd8146" offset="0" stop-opacity="1"/>
   <stop stop-color="#fc9b4b" offset="1" stop-opacity="1"/>
  </linearGradient>
  <linearGradient id="gradient3" gradientUnits="objectBoundingBox" x1="-0.0192305675288781" y1="0.460032508632992" x2="0.713598734410877" y2="0.443382593491587" spreadMethod="pad">
   <stop stop-color="#fd8146" offset="0" stop-opacity="1"/>
   <stop stop-color="#fc9b4b" offset="1" stop-opacity="1"/>
  </linearGradient>
  <linearGradient id="gradient4" gradientUnits="objectBoundingBox" x1="0.443505353068328" y1="0.667465705137789" x2="0.481322154536707" y2="1.02075900584391" spreadMethod="pad">
   <stop stop-color="#fc9b4b" offset="0" stop-opacity="1"/>
   <stop stop-color="#fd8146" offset="1" stop-opacity="1"/>
  </linearGradient>
  <linearGradient id="gradient5" gradientUnits="objectBoundingBox" x1="-0.0192305675288781" y1="0.460032508632992" x2="0.713598734410877" y2="0.443382593491587" spreadMethod="pad">
   <stop stop-color="#fd8146" offset="0" stop-opacity="1"/>
   <stop stop-color="#fc9b4b" offset="1" stop-opacity="1"/>
  </linearGradient>
  <linearGradient id="gradient6" gradientUnits="objectBoundingBox" x1="0.470417075853069" y1="0.134687492069558" x2="0.438107237652287" y2="0.609936133791032" spreadMethod="pad">
   <stop stop-color="#fd8146" offset="0" stop-opacity="1"/>
   <stop stop-color="#fc9b4b" offset="1" stop-opacity="1"/>
  </linearGradient>
  <linearGradient id="gradient7" gradientUnits="objectBoundingBox" x1="0.186338760512113" y1="0.458562269920798" x2="0.596101916342099" y2="0.545946709792069" spreadMethod="pad">
   <stop stop-color="#fd8146" offset="0" stop-opacity="1"/>
   <stop stop-color="#fc9b4b" offset="1" stop-opacity="1"/>
  </linearGradient>
  <linearGradient id="gradient8" gradientUnits="objectBoundingBox" x1="0.443505353068328" y1="0.667465705137789" x2="0.481322154536707" y2="1.02075900584391" spreadMethod="pad">
   <stop stop-color="#fc9b4b" offset="0" stop-opacity="1"/>
   <stop stop-color="#fd8146" offset="1" stop-opacity="1"/>
  </linearGradient>
  <linearGradient id="gradient9" gradientUnits="objectBoundingBox" x1="-0.0192305675288781" y1="0.460032508632992" x2="0.713598734410877" y2="0.443382593491587" spreadMethod="pad">
   <stop stop-color="#fd8146" offset="0" stop-opacity="1"/>
   <stop stop-color="#fc9b4b" offset="1" stop-opacity="1"/>
  </linearGradient>
  <linearGradient id="gradient10" gradientUnits="objectBoundingBox" x1="0.470417075853069" y1="0.134687492069558" x2="0.438107237652287" y2="0.609936133791032" spreadMethod="pad">
   <stop stop-color="#fd8146" offset="0" stop-opacity="1"/>
   <stop stop-color="#fc9b4b" offset="1" stop-opacity="1"/>
  </linearGradient>
  <linearGradient id="gradient11" gradientUnits="objectBoundingBox" x1="0.470417075853069" y1="0.134687492069558" x2="0.438107237652287" y2="0.609936133791032" spreadMethod="pad">
   <stop stop-color="#fd8146" offset="0" stop-opacity="1"/>
   <stop stop-color="#fc9b4b" offset="1" stop-opacity="1"/>
  </linearGradient>
  <linearGradient id="gradient12" gradientUnits="objectBoundingBox" x1="0.186338760512113" y1="0.458562269920798" x2="0.596101916342099" y2="0.545946709792069" spreadMethod="pad">
   <stop stop-color="#fd8146" offset="0" stop-opacity="1"/>
   <stop stop-color="#fc9b4b" offset="1" stop-opacity="1"/>
  </linearGradient>
  <linearGradient id="gradient13" gradientUnits="objectBoundingBox" x1="0.443505353068328" y1="0.667465705137789" x2="0.481322154536707" y2="1.02075900584391" spreadMethod="pad">
   <stop stop-color="#fc9b4b" offset="0" stop-opacity="1"/>
   <stop stop-color="#fd8146" offset="1" stop-opacity="1"/>
  </linearGradient>
  <linearGradient id="gradient14" gradientUnits="objectBoundingBox" x1="0.443505353068328" y1="0.667465705137789" x2="0.481322154536707" y2="1.02075900584391" spreadMethod="pad">
   <stop stop-color="#fca04b" offset="0" stop-opacity="1"/>
   <stop stop-color="#fd8146" offset="1" stop-opacity="1"/>
  </linearGradient>
  <linearGradient id="gradient15" gradientUnits="objectBoundingBox" x1="-0.0467532456590578" y1="0.479999988766326" x2="0.802597407217312" y2="0.500000011701744" spreadMethod="pad">
   <stop stop-color="#fd8146" offset="0" stop-opacity="1"/>
   <stop stop-color="#fc9b4b" offset="1" stop-opacity="1"/>
  </linearGradient>
  <linearGradient id="gradient16" gradientUnits="objectBoundingBox" x1="-0.0467532456590578" y1="0.479999988766326" x2="0.802597407217312" y2="0.500000011701744" spreadMethod="pad">
   <stop stop-color="#fc9b4b" offset="0" stop-opacity="1"/>
   <stop stop-color="#fd8146" offset="1" stop-opacity="1"/>
  </linearGradient>
  <linearGradient id="gradient17" gradientUnits="objectBoundingBox" x1="0.540000019548625" y1="-0.00178573245093927" x2="0.454999980270363" y2="0.443928569398721" spreadMethod="pad">
   <stop stop-color="#fd8146" offset="0" stop-opacity="1"/>
   <stop stop-color="#fc9b4b" offset="1" stop-opacity="1"/>
  </linearGradient>
  <linearGradient id="gradient18" gradientUnits="objectBoundingBox" x1="0" y1="0" x2="1" y2="1" spreadMethod="pad">
   <stop stop-color="#fd8146" offset="0" stop-opacity="1"/>
   <stop stop-color="#ea7147" offset="1" stop-opacity="1"/>
  </linearGradient>
  <linearGradient id="gradient19" gradientUnits="objectBoundingBox" x1="0.540000019548625" y1="-0.00178573245093927" x2="0.454999980270363" y2="0.443928569398721" spreadMethod="pad">
   <stop stop-color="#fd8146" offset="0" stop-opacity="1"/>
   <stop stop-color="#fc9b4b" offset="1" stop-opacity="1"/>
  </linearGradient>
  <linearGradient id="gradient20" gradientUnits="objectBoundingBox" x1="0" y1="0" x2="1" y2="1" spreadMethod="pad">
   <stop stop-color="#fd8146" offset="0" stop-opacity="1"/>
   <stop stop-color="#ea7147" offset="1" stop-opacity="1"/>
  </linearGradient>
  <linearGradient id="gradient21" gradientUnits="objectBoundingBox" x1="0.470417075853069" y1="0.134687492069558" x2="0.438107237652287" y2="0.609936133791032" spreadMethod="pad">
   <stop stop-color="#fd8146" offset="0" stop-opacity="1"/>
   <stop stop-color="#fc9b4b" offset="1" stop-opacity="1"/>
  </linearGradient>
  <linearGradient id="gradient22" gradientUnits="objectBoundingBox" x1="0.186338760512113" y1="0.458562269920798" x2="0.596101916342099" y2="0.545946709792069" spreadMethod="pad">
   <stop stop-color="#fd8146" offset="0" stop-opacity="1"/>
   <stop stop-color="#fc9b4b" offset="1" stop-opacity="1"/>
  </linearGradient>
 </defs>
<path id="shape0" transform="matrix(0.999999946951812 0 0 0.999999946951812 983.04000226565 2.17375649078893e-05)" fill="url(#gradient0)" fill-rule="evenodd" stroke="url(#gradient1)" stroke-opacity="0" stroke-width="0" stroke-linecap="square" stroke-linejoin="bevel" d="M0 0L48 48.24L48 336L0 336Z"/><path id="shape01" transform="matrix(1.31772568203796 0 0 0.999999946951812 912.142856997257 -0.0788189849363115)" fill="url(#gradient2)" fill-rule="evenodd" stroke="#000000" stroke-opacity="0" stroke-width="0" stroke-linecap="square" stroke-linejoin="bevel" d="M0 8.49144e-06L143.4 0L143.412 48L0 48Z"/><path id="shape02" transform="matrix(0.999999890241532 0 0 0.999999849223288 685.440004098884 289.559979941279)" fill="url(#gradient3)" fill-rule="evenodd" stroke="#000000" stroke-opacity="0" stroke-width="0" stroke-linecap="square" stroke-linejoin="bevel" d="M0 0L187.92 2.07612e-14L139.747 46.5103L45 46.8Z"/><path id="shape03" transform="matrix(0.999999890241532 0 0 0.999999849223287 683.580000398389 0.600038145848849)" fill="#fc9b4b" fill-rule="evenodd" stroke="#000000" stroke-opacity="0" stroke-width="0" stroke-linecap="square" stroke-linejoin="bevel" d="M0 0.119965L46.92 0L46.92 336L0.84 288.96Z"/><path id="shape04" transform="matrix(-0.999941922668245 0.0107671615965512 0.0107671615965512 0.999941881652382 872.065127409234 -0.719996477840391)" fill="url(#gradient4)" fill-rule="evenodd" stroke="#000000" stroke-opacity="0" stroke-width="0" stroke-linecap="square" stroke-linejoin="bevel" d="M0 0L45.2754 0.224533L48.5124 290.005L1.60503 290.625Z"/><path id="shape05" transform="matrix(0.999999890241532 0 0 0.999999849223288 456.960003085711 289.559979941279)" fill="url(#gradient5)" fill-rule="evenodd" stroke="#000000" stroke-opacity="0" stroke-width="0" stroke-linecap="square" stroke-linejoin="bevel" d="M0 0L187.92 2.07612e-14L139.747 46.5103L45 46.8Z"/><path id="shape06" transform="matrix(0.999999890241532 0 0 0.999999849223287 455.099999385216 0.600038145848849)" fill="url(#gradient6)" fill-rule="evenodd" stroke="#000000" stroke-opacity="0" stroke-width="0" stroke-linecap="square" stroke-linejoin="bevel" d="M0 46.68L46.92 0L46.92 336L0.84 288.96Z"/><path id="shape07" transform="matrix(-0.999998217627326 -0.00182899565599769 0.00182899565599792 -0.999998176609152 642.677216604892 47.9816583948603)" fill="url(#gradient7)" fill-rule="evenodd" stroke="#000000" stroke-opacity="0" stroke-width="0" stroke-linecap="square" stroke-linejoin="bevel" d="M0 0L186.798 0.978566L141.075 47.2511L43.372 47.7701Z"/><path id="shape08" transform="matrix(-0.999941922668245 0.0107671615965512 0.0107671615965512 0.999941881652382 643.075208696875 -0.489959880618059)" fill="url(#gradient8)" fill-rule="evenodd" stroke="#000000" stroke-opacity="0" stroke-width="0" stroke-linecap="square" stroke-linejoin="bevel" d="M0 47.3586L44.763 0L48 289.78L1.09266 290.4Z"/><path id="shape09" transform="matrix(0.999999890241532 0 0 0.999999849223288 228.000002070409 289.559979941279)" fill="url(#gradient9)" fill-rule="evenodd" stroke="#000000" stroke-opacity="0" stroke-width="0" stroke-linecap="square" stroke-linejoin="bevel" d="M0 0L187.92 2.07612e-14L139.747 46.5103L45 46.8Z"/><path id="shape010" transform="matrix(0.999999890241532 0 0 0.999999849223287 226.139987690039 0.840038141805561)" fill="url(#gradient10)" fill-rule="evenodd" stroke="#000000" stroke-opacity="0" stroke-width="0" stroke-linecap="square" stroke-linejoin="bevel" d="M0 46.68L46.92 0L46.92 336L0.84 335.88Z"/><path id="shape011" transform="matrix(0.999999890241532 0 0 0.999999849223287 226.139998369914 0.600038145848849)" fill="url(#gradient11)" fill-rule="evenodd" stroke="#000000" stroke-opacity="0" stroke-width="0" stroke-linecap="square" stroke-linejoin="bevel" d="M0 46.68L46.92 0L46.92 336L0.84 288.96Z"/><path id="shape012" transform="matrix(-0.999998217627326 -0.00182899565599769 0.00182899565599792 -0.999998176609152 413.717215589591 47.9816583948603)" fill="url(#gradient12)" fill-rule="evenodd" stroke="#000000" stroke-opacity="0" stroke-width="0" stroke-linecap="square" stroke-linejoin="bevel" d="M0 0L186.798 0.978566L141.075 47.2511L43.372 47.7701Z"/><path id="shape013" transform="matrix(-0.999941922668245 0.0107671615965512 0.0107671615965512 0.999941881652382 414.589626243297 -0.495068318620999)" fill="url(#gradient13)" fill-rule="evenodd" stroke="#000000" stroke-opacity="0" stroke-width="0" stroke-linecap="square" stroke-linejoin="bevel" d="M0.474446 47.3586L45.2374 0L47.3405 162.355L0 144.863Z"/><path id="shape014" transform="matrix(-0.99994192266824 0.0107671615965511 0.0107671615965511 0.999941881652377 415.178790396205 145.898884411748)" fill="url(#gradient14)" fill-rule="evenodd" stroke="#000000" stroke-opacity="0" stroke-width="0" stroke-linecap="square" stroke-linejoin="bevel" d="M0 46.55L46.5415 0L47.4873 143.388L0.579988 144.008Z"/><path id="shape015" transform="matrix(0.999999946951812 0 0 0.999999946951812 272.759983643687 144.600004166567)" fill="url(#gradient15)" fill-rule="evenodd" stroke="#000000" stroke-opacity="0" stroke-width="0" stroke-linecap="square" stroke-linejoin="bevel" d="M0 8.49144e-06L143.4 0L120.101 23.88L96.72 48L0 48Z"/><rect id="shape016" transform="matrix(0.999999946951812 0 0 0.999999946951812 47.3999981202097 160.800012385085)" fill="url(#gradient16)" fill-rule="evenodd" stroke="#000000" stroke-opacity="0" stroke-width="0" stroke-linecap="square" stroke-linejoin="bevel" width="92.4000055074695" height="48.0000028610231"/><path id="shape017" transform="matrix(-0.999999946951812 0 0 0.999999946951812 48.9600023106563 0.480013184556587)" fill="url(#gradient17)" fill-rule="evenodd" stroke="url(#gradient18)" stroke-opacity="0" stroke-width="0" stroke-linecap="square" stroke-linejoin="bevel" d="M0 0L48 48.24L48 336L0 336Z"/><path id="shape018" transform="matrix(0.999999946951812 0 0 0.999999946951812 139.199998523721 2.17375649078893e-05)" fill="url(#gradient19)" fill-rule="evenodd" stroke="url(#gradient20)" stroke-opacity="0" stroke-width="0" stroke-linecap="square" stroke-linejoin="bevel" d="M0 0L48 48.24L48 336L0 336Z"/><path id="shape019" transform="matrix(0.999999890241532 0 0 0.999999849223287 -1.20393992198845e-07 -4.39921491410727e-07)" fill="url(#gradient21)" fill-rule="evenodd" stroke="#000000" stroke-opacity="0" stroke-width="0" stroke-linecap="square" stroke-linejoin="bevel" d="M0 46.68L48 0L48 336L0.859335 288.96Z"/><path id="shape020" transform="matrix(-0.999998217627326 -0.00182899565599769 0.00182899565599793 -0.999998176609152 186.197214580675 48.4616583969888)" fill="url(#gradient22)" fill-rule="evenodd" stroke="#000000" stroke-opacity="0" stroke-width="0" stroke-linecap="square" stroke-linejoin="bevel" d="M0 0L185.521 1.11388L141.075 47.2511L43.372 47.7701Z"/><ellipse id="shape0" transform="translate(512.88, 451.2)" rx="37.68" ry="37.6800000000001" cx="37.68" cy="37.6800000000001" fill="#fc9b4b" fill-rule="evenodd" stroke="#000000" stroke-opacity="0" stroke-width="0" stroke-linecap="square" stroke-linejoin="bevel"/>
</svg>
