<?xml version="1.0" standalone="no"?>
<!DOCTYPE svg PUBLIC "-//W3C//DTD SVG 20010904//EN" "http://www.w3.org/TR/2001/REC-SVG-20010904/DTD/svg10.dtd">
<!-- Created using Krita: https://krita.org -->
<svg xmlns="http://www.w3.org/2000/svg" 
    xmlns:xlink="http://www.w3.org/1999/xlink"
    xmlns:krita="http://krita.org/namespaces/svg/krita"
    xmlns:sodipodi="http://sodipodi.sourceforge.net/DTD/sodipodi-0.dtd"
    width="1233.36pt"
    height="528pt"
    viewBox="0 0 1233.36 528">
<defs>
  <linearGradient id="gradient0" gradientUnits="objectBoundingBox" x1="0.540000019548625" y1="-0.00178573245093927" x2="0.454999980270363" y2="0.443928569398721" spreadMethod="pad">
   <stop stop-color="#fd8146" offset="0" stop-opacity="1"/>
   <stop stop-color="#fc9b4b" offset="1" stop-opacity="1"/>
  </linearGradient>
  <linearGradient id="gradient1" gradientUnits="objectBoundingBox" x1="0" y1="0" x2="1" y2="1" spreadMethod="pad">
   <stop stop-color="#fd8146" offset="0" stop-opacity="1"/>
   <stop stop-color="#ea7147" offset="1" stop-opacity="1"/>
  </linearGradient>
  <linearGradient id="gradient2" gradientUnits="objectBoundingBox" x1="-0.0467532456590578" y1="0.479999988766326" x2="0.802597407217312" y2="0.500000011701744" spreadMethod="pad">
   <stop stop-color="#fd8146" offset="0" stop-opacity="1"/>
   <stop stop-color="#fc9b4b" offset="1" stop-opacity="1"/>
  </linearGradient>
  <linearGradient id="gradient3" gradientUnits="objectBoundingBox" x1="0.443505353068328" y1="0.667465705137789" x2="0.481322154536707" y2="1.02075900584391" spreadMethod="pad">
   <stop stop-color="#fc9b4b" offset="0" stop-opacity="1"/>
   <stop stop-color="#fd8146" offset="1" stop-opacity="1"/>
  </linearGradient>
  <linearGradient id="gradient4" gradientUnits="objectBoundingBox" x1="0.540000019548625" y1="-0.00178573245093927" x2="0.454999980270363" y2="0.443928569398721" spreadMethod="pad">
   <stop stop-color="#fd8146" offset="0" stop-opacity="1"/>
   <stop stop-color="#fc9b4b" offset="1" stop-opacity="1"/>
  </linearGradient>
  <linearGradient id="gradient5" gradientUnits="objectBoundingBox" x1="0" y1="0" x2="1" y2="1" spreadMethod="pad">
   <stop stop-color="#fd8146" offset="0" stop-opacity="1"/>
   <stop stop-color="#ea7147" offset="1" stop-opacity="1"/>
  </linearGradient>
  <linearGradient id="gradient6" gradientUnits="objectBoundingBox" x1="0.540000019548625" y1="-0.00178573245093927" x2="0.454999980270363" y2="0.443928569398721" spreadMethod="pad">
   <stop stop-color="#fd8146" offset="0" stop-opacity="1"/>
   <stop stop-color="#fc9b4b" offset="1" stop-opacity="1"/>
  </linearGradient>
  <linearGradient id="gradient7" gradientUnits="objectBoundingBox" x1="0" y1="0" x2="1" y2="1" spreadMethod="pad">
   <stop stop-color="#fd8146" offset="0" stop-opacity="1"/>
   <stop stop-color="#ea7147" offset="1" stop-opacity="1"/>
  </linearGradient>
  <linearGradient id="gradient8" gradientUnits="objectBoundingBox" x1="0.540000019548625" y1="-0.00178573245093927" x2="0.454999980270363" y2="0.443928569398721" spreadMethod="pad">
   <stop stop-color="#fc9b4b" offset="0" stop-opacity="1"/>
   <stop stop-color="#fd8146" offset="1" stop-opacity="1"/>
  </linearGradient>
  <linearGradient id="gradient9" gradientUnits="objectBoundingBox" x1="0" y1="0" x2="1" y2="1" spreadMethod="pad">
   <stop stop-color="#fd8146" offset="0" stop-opacity="1"/>
   <stop stop-color="#ea7147" offset="1" stop-opacity="1"/>
  </linearGradient>
  <linearGradient id="gradient10" gradientUnits="objectBoundingBox" x1="0.483294719012457" y1="0.782928757329344" x2="0.613174680235063" y2="1.29251725110569" spreadMethod="pad">
   <stop stop-color="#fc9b4b" offset="0" stop-opacity="1"/>
   <stop stop-color="#fd8146" offset="1" stop-opacity="1"/>
  </linearGradient>
  <linearGradient id="gradient11" gradientUnits="objectBoundingBox" x1="0" y1="0" x2="1" y2="1" spreadMethod="pad">
   <stop stop-color="#fd8146" offset="0" stop-opacity="1"/>
   <stop stop-color="#ea7147" offset="1" stop-opacity="1"/>
  </linearGradient>
  <linearGradient id="gradient12" gradientUnits="objectBoundingBox" x1="-0.0192305675288781" y1="0.460032508632992" x2="0.713598734410877" y2="0.443382593491587" spreadMethod="pad">
   <stop stop-color="#fd8146" offset="0" stop-opacity="1"/>
   <stop stop-color="#fc9b4b" offset="1" stop-opacity="1"/>
  </linearGradient>
  <linearGradient id="gradient13" gradientUnits="objectBoundingBox" x1="0.470417075853069" y1="0.134687492069558" x2="0.438107237652287" y2="0.609936133791032" spreadMethod="pad">
   <stop stop-color="#fd8146" offset="0" stop-opacity="1"/>
   <stop stop-color="#fc9b4b" offset="1" stop-opacity="1"/>
  </linearGradient>
  <linearGradient id="gradient14" gradientUnits="objectBoundingBox" x1="0.470417075853069" y1="0.134687492069558" x2="0.438107237652287" y2="0.609936133791032" spreadMethod="pad">
   <stop stop-color="#fd8146" offset="0" stop-opacity="1"/>
   <stop stop-color="#fc9b4b" offset="1" stop-opacity="1"/>
  </linearGradient>
  <linearGradient id="gradient15" gradientUnits="objectBoundingBox" x1="0.186338760512113" y1="0.458562269920798" x2="0.596101916342099" y2="0.545946709792069" spreadMethod="pad">
   <stop stop-color="#fd8146" offset="0" stop-opacity="1"/>
   <stop stop-color="#fc9b4b" offset="1" stop-opacity="1"/>
  </linearGradient>
  <linearGradient id="gradient16" gradientUnits="objectBoundingBox" x1="0.443505353068328" y1="0.667465705137789" x2="0.481322154536707" y2="1.02075900584391" spreadMethod="pad">
   <stop stop-color="#fc9b4b" offset="0" stop-opacity="1"/>
   <stop stop-color="#fd8146" offset="1" stop-opacity="1"/>
  </linearGradient>
  <linearGradient id="gradient17" gradientUnits="objectBoundingBox" x1="0.443505353068328" y1="0.667465705137789" x2="0.481322154536707" y2="1.02075900584391" spreadMethod="pad">
   <stop stop-color="#fca04b" offset="0" stop-opacity="1"/>
   <stop stop-color="#fd8146" offset="1" stop-opacity="1"/>
  </linearGradient>
  <linearGradient id="gradient18" gradientUnits="objectBoundingBox" x1="-0.0467532456590578" y1="0.479999988766326" x2="0.802597407217312" y2="0.500000011701744" spreadMethod="pad">
   <stop stop-color="#fd8146" offset="0" stop-opacity="1"/>
   <stop stop-color="#fc9b4b" offset="1" stop-opacity="1"/>
  </linearGradient>
  <linearGradient id="gradient19" gradientUnits="objectBoundingBox" x1="-0.0192305675288781" y1="0.460032508632992" x2="0.713598734410877" y2="0.443382593491587" spreadMethod="pad">
   <stop stop-color="#fd8146" offset="0" stop-opacity="1"/>
   <stop stop-color="#fc9b4b" offset="1" stop-opacity="1"/>
  </linearGradient>
  <linearGradient id="gradient20" gradientUnits="objectBoundingBox" x1="0.443505353068328" y1="0.667465705137789" x2="0.481322154536707" y2="1.02075900584391" spreadMethod="pad">
   <stop stop-color="#fc9b4b" offset="0" stop-opacity="1"/>
   <stop stop-color="#fd8146" offset="1" stop-opacity="1"/>
  </linearGradient>
  <linearGradient id="gradient21" gradientUnits="objectBoundingBox" x1="-0.0192305675288781" y1="0.460032508632992" x2="0.713598734410877" y2="0.443382593491587" spreadMethod="pad">
   <stop stop-color="#fd8146" offset="0" stop-opacity="1"/>
   <stop stop-color="#fc9b4b" offset="1" stop-opacity="1"/>
  </linearGradient>
  <linearGradient id="gradient22" gradientUnits="objectBoundingBox" x1="0.470417075853069" y1="0.134687492069558" x2="0.438107237652287" y2="0.609936133791032" spreadMethod="pad">
   <stop stop-color="#fd8146" offset="0" stop-opacity="1"/>
   <stop stop-color="#fc9b4b" offset="1" stop-opacity="1"/>
  </linearGradient>
  <linearGradient id="gradient23" gradientUnits="objectBoundingBox" x1="0.470417075853069" y1="0.134687492069558" x2="0.438107237652287" y2="0.609936133791032" spreadMethod="pad">
   <stop stop-color="#fd8146" offset="0" stop-opacity="1"/>
   <stop stop-color="#fc9b4b" offset="1" stop-opacity="1"/>
  </linearGradient>
  <linearGradient id="gradient24" gradientUnits="objectBoundingBox" x1="0.186338760512113" y1="0.458562269920798" x2="0.596101916342099" y2="0.545946709792069" spreadMethod="pad">
   <stop stop-color="#fd8146" offset="0" stop-opacity="1"/>
   <stop stop-color="#fc9b4b" offset="1" stop-opacity="1"/>
  </linearGradient>
  <linearGradient id="gradient25" gradientUnits="objectBoundingBox" x1="0.443505353068328" y1="0.667465705137789" x2="0.481322154536707" y2="1.02075900584391" spreadMethod="pad">
   <stop stop-color="#fc9b4b" offset="0" stop-opacity="1"/>
   <stop stop-color="#fd8146" offset="1" stop-opacity="1"/>
  </linearGradient>
  <linearGradient id="gradient26" gradientUnits="objectBoundingBox" x1="0.443505353068328" y1="0.667465705137789" x2="0.481322154536707" y2="1.02075900584391" spreadMethod="pad">
   <stop stop-color="#fca04b" offset="0" stop-opacity="1"/>
   <stop stop-color="#fd8146" offset="1" stop-opacity="1"/>
  </linearGradient>
  <linearGradient id="gradient27" gradientUnits="objectBoundingBox" x1="-0.0467532456590578" y1="0.479999988766326" x2="0.802597407217312" y2="0.500000011701744" spreadMethod="pad">
   <stop stop-color="#fd8146" offset="0" stop-opacity="1"/>
   <stop stop-color="#fc9b4b" offset="1" stop-opacity="1"/>
  </linearGradient>
 </defs>
<ellipse id="shape0" transform="translate(579, 451.2)" rx="37.68" ry="37.6800000000001" cx="37.68" cy="37.6800000000001" fill="#fc9b4b" fill-rule="evenodd" stroke="#000000" stroke-opacity="0" stroke-width="0" stroke-linecap="square" stroke-linejoin="bevel"/><path id="shape0" transform="matrix(0.999999958828666 0 0 0.999999958828666 1115.28001551167 0.720022788310554)" fill="url(#gradient0)" fill-rule="evenodd" stroke="url(#gradient1)" stroke-opacity="0" stroke-width="0" stroke-linecap="square" stroke-linejoin="bevel" d="M0 0L48 48.24L48 336L0 336Z"/><path id="shape01" transform="matrix(1.3177256976884 0 0 0.999999958828666 1044.38286940124 0.641182064872954)" fill="url(#gradient2)" fill-rule="evenodd" stroke="#000000" stroke-opacity="0" stroke-width="0" stroke-linecap="square" stroke-linejoin="bevel" d="M0 8.49144e-06L143.4 0L143.412 48L0 48Z"/><path id="shape02" transform="matrix(-0.99994193454441 0.0107671617244312 0.0107671617244312 0.999941893528546 1004.27426789311 0.10646402431878)" fill="url(#gradient3)" fill-rule="evenodd" stroke="#000000" stroke-opacity="0" stroke-width="0" stroke-linecap="square" stroke-linejoin="bevel" d="M0 0L45.2754 0.261261L48.5124 337.443L1.60503 338.164Z"/><path id="shape03" transform="matrix(0.999999954394261 0 0 0.999999954394261 684.119998474488 9.36001309990785)" fill="url(#gradient4)" fill-rule="evenodd" stroke="url(#gradient5)" stroke-opacity="0" stroke-width="0" stroke-linecap="square" stroke-linejoin="bevel" d="M0 11.16L47.64 0L48.12 327.36L0.120001 327.36Z"/><path id="shape04" transform="matrix(-0.999999954394261 0 0 0.999999954394261 919.559996260274 9.36001309990785)" fill="url(#gradient6)" fill-rule="evenodd" stroke="url(#gradient7)" stroke-opacity="0" stroke-width="0" stroke-linecap="square" stroke-linejoin="bevel" d="M0 11.16L47.64 0L48.12 327.36L0.120001 327.36Z"/><path id="shape05" transform="matrix(0.919371748593492 -0.393389751616218 0.393389751616218 0.919371748593492 683.876891793962 19.3957098453535)" fill="url(#gradient8)" fill-rule="evenodd" stroke="url(#gradient9)" stroke-opacity="0" stroke-width="0" stroke-linecap="square" stroke-linejoin="bevel" d="M0 0L48 0L47.5906 253.005L0.923238 233.037Z"/><path id="shape06" transform="matrix(-0.919371748593492 -0.393389751616218 -0.393389751616218 0.919371748593492 919.629767371111 19.3957098453536)" fill="url(#gradient10)" fill-rule="evenodd" stroke="url(#gradient11)" stroke-opacity="0" stroke-width="0" stroke-linecap="square" stroke-linejoin="bevel" d="M0 0L48 0L47.5906 253.005L0.923238 233.037Z"/><path id="shape07" transform="matrix(0.999999902118385 0 0 0.999999861100141 458.400007514759 290.279984431086)" fill="url(#gradient12)" fill-rule="evenodd" stroke="#000000" stroke-opacity="0" stroke-width="0" stroke-linecap="square" stroke-linejoin="bevel" d="M0 0L187.92 2.07612e-14L139.747 46.5103L45 46.8Z"/><path id="shape08" transform="matrix(0.999999902118385 0 0 0.99999986110014 456.539993112298 1.56003920252796)" fill="url(#gradient13)" fill-rule="evenodd" stroke="#000000" stroke-opacity="0" stroke-width="0" stroke-linecap="square" stroke-linejoin="bevel" d="M0 46.68L46.92 0L46.92 336L0.84 335.88Z"/><path id="shape09" transform="matrix(0.999999902118385 0 0 0.99999986110014 456.540003792173 1.3200392037208)" fill="url(#gradient14)" fill-rule="evenodd" stroke="#000000" stroke-opacity="0" stroke-width="0" stroke-linecap="square" stroke-linejoin="bevel" d="M0 46.68L46.92 0L46.92 336L0.84 288.96Z"/><path id="shape010" transform="matrix(-0.999998229504159 -0.00182899567772041 0.00182899567772064 -0.999998188485985 644.117223239678 48.7016600154769)" fill="url(#gradient15)" fill-rule="evenodd" stroke="#000000" stroke-opacity="0" stroke-width="0" stroke-linecap="square" stroke-linejoin="bevel" d="M0 0L186.798 0.978566L141.075 47.2511L43.372 47.7701Z"/><path id="shape011" transform="matrix(-0.99994193454441 0.0107671617244312 0.0107671617244312 0.999941893528546 644.989633903745 0.224932726244534)" fill="url(#gradient16)" fill-rule="evenodd" stroke="#000000" stroke-opacity="0" stroke-width="0" stroke-linecap="square" stroke-linejoin="bevel" d="M0.474446 47.3586L45.2374 0L47.3405 162.355L0 144.863Z"/><path id="shape012" transform="matrix(-0.999941934544405 0.0107671617244311 0.0107671617244311 0.999941893528541 645.578798063651 146.618887195313)" fill="url(#gradient17)" fill-rule="evenodd" stroke="#000000" stroke-opacity="0" stroke-width="0" stroke-linecap="square" stroke-linejoin="bevel" d="M0 46.55L46.5415 0L47.4873 143.388L0.579988 144.008Z"/><path id="shape013" transform="matrix(0.999999958828666 0 0 0.999999958828666 503.159989619645 145.320006934706)" fill="url(#gradient18)" fill-rule="evenodd" stroke="#000000" stroke-opacity="0" stroke-width="0" stroke-linecap="square" stroke-linejoin="bevel" d="M0 8.49144e-06L143.4 0L120.101 23.88L96.72 48L0 48Z"/><path id="shape014" transform="matrix(0.999999902118385 0 0 0.999999861100141 229.44000682391 290.279984431086)" fill="url(#gradient19)" fill-rule="evenodd" stroke="#000000" stroke-opacity="0" stroke-width="0" stroke-linecap="square" stroke-linejoin="bevel" d="M0 0L187.92 2.07612e-14L139.747 46.5103L45 46.8Z"/><path id="shape015" transform="matrix(0.999999902118385 0 0 0.99999986110014 227.580003101324 1.20002638693442)" fill="#fc9b4b" fill-rule="evenodd" stroke="#000000" stroke-opacity="0" stroke-width="0" stroke-linecap="square" stroke-linejoin="bevel" d="M0 0.119965L46.92 0L46.92 336L0.84 288.96Z"/><path id="shape016" transform="matrix(-0.99994193454441 0.0107671617244312 0.0107671617244312 0.999941893528546 416.065132350779 4.56435370343464e-06)" fill="url(#gradient20)" fill-rule="evenodd" stroke="#000000" stroke-opacity="0" stroke-width="0" stroke-linecap="square" stroke-linejoin="bevel" d="M0 0L45.2754 0.224533L48.5124 290.005L1.60503 290.625Z"/><path id="shape017" transform="matrix(0.99999990655279 0 0 0.999999865534546 0.480002078238975 290.279989240465)" fill="url(#gradient21)" fill-rule="evenodd" stroke="#000000" stroke-opacity="0" stroke-width="0" stroke-linecap="square" stroke-linejoin="bevel" d="M0 0L187.92 2.07612e-14L139.747 46.5103L45 46.8Z"/><path id="shape018" transform="matrix(0.99999990655279 0 0 0.999999865534545 -0.540001731090564 234.720003829929)" fill="url(#gradient22)" fill-rule="evenodd" stroke="#000000" stroke-opacity="0" stroke-width="0" stroke-linecap="square" stroke-linejoin="bevel" d="M0.180002 0L46.08 0.24L46.08 102.6L0 55.56Z"/><path id="shape019" transform="matrix(0.99999990655279 0 0 0.999999865534545 -1.38000165259491 1.20002564195436)" fill="url(#gradient23)" fill-rule="evenodd" stroke="#000000" stroke-opacity="0" stroke-width="0" stroke-linecap="square" stroke-linejoin="bevel" d="M0 46.68L46.92 0L46.02 191.28L1.02 143.16Z"/><path id="shape020" transform="matrix(-0.999998233938556 -0.00182899568583092 0.00182899568583115 -0.999998192920382 186.197218626702 48.7016637535994)" fill="url(#gradient24)" fill-rule="evenodd" stroke="#000000" stroke-opacity="0" stroke-width="0" stroke-linecap="square" stroke-linejoin="bevel" d="M0 0L186.798 0.978566L141.075 47.2511L43.372 47.7701Z"/><path id="shape021" transform="matrix(-0.999941938978558 0.0107671617721772 0.0107671617721772 0.999941897962694 186.595210841457 0.230044686235754)" fill="url(#gradient25)" fill-rule="evenodd" stroke="#000000" stroke-opacity="0" stroke-width="0" stroke-linecap="square" stroke-linejoin="bevel" d="M0 47.3586L44.763 0L46.1877 99.3584L0.952901 100.086Z"/><path id="shape022" transform="matrix(-0.999941938978553 0.0107671617721771 0.0107671617721771 0.999941897962689 187.622617795287 143.259272486115)" fill="url(#gradient26)" fill-rule="evenodd" stroke="#000000" stroke-opacity="0" stroke-width="0" stroke-linecap="square" stroke-linejoin="bevel" d="M0 49.9098L46.5053 0L47.4873 146.748L0.579988 147.368Z"/><path id="shape023" transform="matrix(0.999999963263071 0 0 0.999999963263071 44.2800005259072 144.960002763863)" fill="url(#gradient27)" fill-rule="evenodd" stroke="#000000" stroke-opacity="0" stroke-width="0" stroke-linecap="square" stroke-linejoin="bevel" d="M0 0.12L97.56 0L97.68 48.24L0.12 47.76Z"/>
</svg>
